<mxfile host="app.diagrams.net" agent="Mozilla/5.0 (Windows NT 10.0; Win64; x64) AppleWebKit/537.36 (KHTML, like Gecko) Chrome/130.0.0.0 Safari/537.36" version="24.8.4">
  <diagram name="Page-1" id="VzMOn2M5lutdCOXoJg0h">
    <mxGraphModel grid="1" page="1" gridSize="10" guides="1" tooltips="1" connect="1" arrows="1" fold="1" pageScale="1" pageWidth="850" pageHeight="1100" math="0" shadow="0">
      <root>
        <mxCell id="0" />
        <mxCell id="1" parent="0" />
        <mxCell id="II5kcewWHrjLdTUGVy-r-1" value="GroupChat" style="swimlane;fontStyle=1;align=center;verticalAlign=top;childLayout=stackLayout;horizontal=1;startSize=26;horizontalStack=0;resizeParent=1;resizeParentMax=0;resizeLast=0;collapsible=1;marginBottom=0;whiteSpace=wrap;html=1;" vertex="1" parent="1">
          <mxGeometry x="340" y="150" width="160" height="78" as="geometry" />
        </mxCell>
        <mxCell id="II5kcewWHrjLdTUGVy-r-2" value="- id: string&lt;div&gt;- name: string&lt;/div&gt;" style="text;strokeColor=none;fillColor=none;align=left;verticalAlign=top;spacingLeft=4;spacingRight=4;overflow=hidden;rotatable=0;points=[[0,0.5],[1,0.5]];portConstraint=eastwest;whiteSpace=wrap;html=1;" vertex="1" parent="II5kcewWHrjLdTUGVy-r-1">
          <mxGeometry y="26" width="160" height="44" as="geometry" />
        </mxCell>
        <mxCell id="II5kcewWHrjLdTUGVy-r-3" value="" style="line;strokeWidth=1;fillColor=none;align=left;verticalAlign=middle;spacingTop=-1;spacingLeft=3;spacingRight=3;rotatable=0;labelPosition=right;points=[];portConstraint=eastwest;strokeColor=inherit;" vertex="1" parent="II5kcewWHrjLdTUGVy-r-1">
          <mxGeometry y="70" width="160" height="8" as="geometry" />
        </mxCell>
        <mxCell id="II5kcewWHrjLdTUGVy-r-23" value="" style="edgeStyle=orthogonalEdgeStyle;rounded=0;orthogonalLoop=1;jettySize=auto;html=1;entryX=-0.007;entryY=0.886;entryDx=0;entryDy=0;entryPerimeter=0;" edge="1" parent="1" source="II5kcewWHrjLdTUGVy-r-9" target="II5kcewWHrjLdTUGVy-r-2">
          <mxGeometry relative="1" as="geometry" />
        </mxCell>
        <mxCell id="II5kcewWHrjLdTUGVy-r-9" value="GroupChatModule" style="swimlane;fontStyle=1;align=center;verticalAlign=top;childLayout=stackLayout;horizontal=1;startSize=26;horizontalStack=0;resizeParent=1;resizeParentMax=0;resizeLast=0;collapsible=1;marginBottom=0;whiteSpace=wrap;html=1;" vertex="1" parent="1">
          <mxGeometry x="120" y="150" width="170" height="130" as="geometry" />
        </mxCell>
        <mxCell id="II5kcewWHrjLdTUGVy-r-10" value="- selectedGroup&lt;div&gt;- searchQuery&lt;/div&gt;" style="text;strokeColor=none;fillColor=none;align=left;verticalAlign=top;spacingLeft=4;spacingRight=4;overflow=hidden;rotatable=0;points=[[0,0.5],[1,0.5]];portConstraint=eastwest;whiteSpace=wrap;html=1;" vertex="1" parent="II5kcewWHrjLdTUGVy-r-9">
          <mxGeometry y="26" width="170" height="54" as="geometry" />
        </mxCell>
        <mxCell id="II5kcewWHrjLdTUGVy-r-11" value="" style="line;strokeWidth=1;fillColor=none;align=left;verticalAlign=middle;spacingTop=-1;spacingLeft=3;spacingRight=3;rotatable=0;labelPosition=right;points=[];portConstraint=eastwest;strokeColor=inherit;" vertex="1" parent="II5kcewWHrjLdTUGVy-r-9">
          <mxGeometry y="80" width="170" height="8" as="geometry" />
        </mxCell>
        <mxCell id="II5kcewWHrjLdTUGVy-r-12" value="+ handleGroupSelect (group)&lt;div&gt;+ filterChats (query)&lt;/div&gt;" style="text;strokeColor=none;fillColor=none;align=left;verticalAlign=top;spacingLeft=4;spacingRight=4;overflow=hidden;rotatable=0;points=[[0,0.5],[1,0.5]];portConstraint=eastwest;whiteSpace=wrap;html=1;" vertex="1" parent="II5kcewWHrjLdTUGVy-r-9">
          <mxGeometry y="88" width="170" height="42" as="geometry" />
        </mxCell>
        <mxCell id="II5kcewWHrjLdTUGVy-r-29" value="" style="edgeStyle=orthogonalEdgeStyle;rounded=0;orthogonalLoop=1;jettySize=auto;html=1;" edge="1" parent="1" source="II5kcewWHrjLdTUGVy-r-13">
          <mxGeometry relative="1" as="geometry">
            <mxPoint x="440" y="479" as="targetPoint" />
          </mxGeometry>
        </mxCell>
        <mxCell id="II5kcewWHrjLdTUGVy-r-13" value="TextRegion&amp;nbsp;" style="swimlane;fontStyle=1;align=center;verticalAlign=top;childLayout=stackLayout;horizontal=1;startSize=26;horizontalStack=0;resizeParent=1;resizeParentMax=0;resizeLast=0;collapsible=1;marginBottom=0;whiteSpace=wrap;html=1;" vertex="1" parent="1">
          <mxGeometry x="360" y="270" width="160" height="86" as="geometry" />
        </mxCell>
        <mxCell id="II5kcewWHrjLdTUGVy-r-14" value="- group" style="text;strokeColor=none;fillColor=none;align=left;verticalAlign=top;spacingLeft=4;spacingRight=4;overflow=hidden;rotatable=0;points=[[0,0.5],[1,0.5]];portConstraint=eastwest;whiteSpace=wrap;html=1;" vertex="1" parent="II5kcewWHrjLdTUGVy-r-13">
          <mxGeometry y="26" width="160" height="26" as="geometry" />
        </mxCell>
        <mxCell id="II5kcewWHrjLdTUGVy-r-15" value="" style="line;strokeWidth=1;fillColor=none;align=left;verticalAlign=middle;spacingTop=-1;spacingLeft=3;spacingRight=3;rotatable=0;labelPosition=right;points=[];portConstraint=eastwest;strokeColor=inherit;" vertex="1" parent="II5kcewWHrjLdTUGVy-r-13">
          <mxGeometry y="52" width="160" height="8" as="geometry" />
        </mxCell>
        <mxCell id="II5kcewWHrjLdTUGVy-r-16" value="+ displayGroupChat (group)" style="text;strokeColor=none;fillColor=none;align=left;verticalAlign=top;spacingLeft=4;spacingRight=4;overflow=hidden;rotatable=0;points=[[0,0.5],[1,0.5]];portConstraint=eastwest;whiteSpace=wrap;html=1;" vertex="1" parent="II5kcewWHrjLdTUGVy-r-13">
          <mxGeometry y="60" width="160" height="26" as="geometry" />
        </mxCell>
        <mxCell id="II5kcewWHrjLdTUGVy-r-17" value="Display&lt;div&gt;filtered list&amp;nbsp;&lt;/div&gt;" style="html=1;whiteSpace=wrap;" vertex="1" parent="1">
          <mxGeometry x="385" y="480" width="110" height="50" as="geometry" />
        </mxCell>
        <mxCell id="II5kcewWHrjLdTUGVy-r-20" value="1" style="text;html=1;align=center;verticalAlign=middle;resizable=0;points=[];autosize=1;strokeColor=none;fillColor=none;" vertex="1" parent="1">
          <mxGeometry x="280" y="210" width="30" height="30" as="geometry" />
        </mxCell>
        <mxCell id="II5kcewWHrjLdTUGVy-r-21" value="1..." style="text;html=1;align=center;verticalAlign=middle;resizable=0;points=[];autosize=1;strokeColor=none;fillColor=none;" vertex="1" parent="1">
          <mxGeometry x="310" y="190" width="40" height="30" as="geometry" />
        </mxCell>
        <mxCell id="II5kcewWHrjLdTUGVy-r-24" value="" style="edgeStyle=orthogonalEdgeStyle;rounded=0;orthogonalLoop=1;jettySize=auto;html=1;" edge="1" parent="1" source="II5kcewWHrjLdTUGVy-r-12" target="II5kcewWHrjLdTUGVy-r-14">
          <mxGeometry relative="1" as="geometry" />
        </mxCell>
        <mxCell id="II5kcewWHrjLdTUGVy-r-30" value="&lt;h1 style=&quot;margin-top: 0px;&quot;&gt;Controller&lt;/h1&gt;&lt;p&gt;The groupChatModule acts as the controller. It controls the search and selection of group chats.&lt;/p&gt;" style="text;html=1;whiteSpace=wrap;overflow=hidden;rounded=0;" vertex="1" parent="1">
          <mxGeometry x="-80" y="60" width="180" height="120" as="geometry" />
        </mxCell>
        <mxCell id="II5kcewWHrjLdTUGVy-r-33" value="&lt;h1 style=&quot;margin-top: 0px;&quot;&gt;Model&lt;/h1&gt;&lt;p&gt;GroupChat acts as the model, storing all of the data for each group chat item.&lt;/p&gt;" style="text;html=1;whiteSpace=wrap;overflow=hidden;rounded=0;" vertex="1" parent="1">
          <mxGeometry x="490" y="20" width="180" height="120" as="geometry" />
        </mxCell>
        <mxCell id="II5kcewWHrjLdTUGVy-r-34" value="&lt;h1 style=&quot;margin-top: 0px;&quot;&gt;View&lt;/h1&gt;&lt;p&gt;The textRegion component is the view, and is responsible for displaying the selected groups chat and updates the chat accordingly, based on user interaction&lt;/p&gt;" style="text;html=1;whiteSpace=wrap;overflow=hidden;rounded=0;" vertex="1" parent="1">
          <mxGeometry x="540" y="330" width="180" height="150" as="geometry" />
        </mxCell>
      </root>
    </mxGraphModel>
  </diagram>
</mxfile>
